<svg width="18" height="18" viewBox="0 0 18 18" fill="none" xmlns="http://www.w3.org/2000/svg">
<path d="M2.89838 3.63588L8.74838 8.49589L8.76666 8.51417C8.9108 8.64003 9.10837 8.64003 9.23495 8.51417L9.25323 8.49589L15.1032 3.63588C15.1215 3.6176 15.1391 3.6176 15.1574 3.60002C14.7074 3.33002 14.1857 3.15002 13.6274 3.15002H4.35593C3.79764 3.15002 3.27593 3.31174 2.82593 3.60002C2.84421 3.60002 2.88007 3.61831 2.89835 3.63588H2.89838Z" fill="#1755CF"/>
<path d="M16.1458 4.6084C16.11 4.66254 16.0741 4.6984 16.02 4.73426L10.1883 9.59426C9.8466 9.88255 9.43246 10.0443 9.00003 10.0443C8.56831 10.0443 8.15417 9.90012 7.81174 9.59426L1.9801 4.73426C1.92596 4.6984 1.8901 4.64426 1.85424 4.6084C1.6201 5.02254 1.47595 5.5084 1.47595 6.03011V11.9701C1.47595 13.5543 2.77181 14.8501 4.35595 14.8501H13.6443C15.2285 14.8501 16.5243 13.5543 16.5243 11.9701V6.03011C16.5243 5.5084 16.3802 5.02182 16.146 4.6084H16.1458Z" fill="#1755CF"/>
</svg>
