<svg width="15" height="18" viewBox="0 0 15 18" fill="none" xmlns="http://www.w3.org/2000/svg">
<path d="M3.79128 0.710898C3.68834 0.667783 3.57417 0.655886 3.464 0.676795C2.21962 0.914771 1.19361 2.38689 0.819552 3.45647C-0.373617 6.93108 1.99268 10.5174 4.31569 13.0062C6.37862 15.2157 10.4283 18.9591 13.6702 16.5586C14.0799 16.2647 14.5847 15.8158 14.6582 15.2939C14.7532 14.4121 14.0263 13.6476 13.4668 13.061C13.0354 12.6245 12.179 11.4746 11.5282 11.3857C10.9422 11.3077 10.4691 11.8261 10.0378 12.1164L9.2768 12.6287C9.14996 12.7141 7.92949 11.6093 7.79755 11.4801C7.30028 11.0378 6.8459 10.5529 6.44003 10.0314C6.04894 9.52194 5.70947 8.97762 5.42625 8.40594C5.34504 8.24253 4.69282 6.82796 4.79809 6.73892C4.79809 6.73892 5.69737 6.07903 5.97006 5.8046C6.54461 5.21793 6.98472 4.75811 6.61165 3.88253C6.4627 3.5694 6.27847 3.27293 6.06226 2.99844C5.69804 2.48995 5.29607 2.00744 4.8595 1.55467C4.61717 1.29982 4.21118 0.846211 3.79128 0.710898Z" fill="#1755CF"/>
</svg>
