<svg width="24" height="24" viewBox="0 0 24 24" fill="none" xmlns="http://www.w3.org/2000/svg">
<path fill-rule="evenodd" clip-rule="evenodd" d="M13.6208 1.53216C13.6452 0.954957 12.8771 0.735256 12.5926 1.23808L5.71439 13.3956C5.50696 13.7623 5.77183 14.2165 6.19309 14.2165H10.9062L9.22686 21.999C9.09883 22.5923 9.88501 22.9252 10.222 22.4203L18.6292 9.8235C18.8731 9.45801 18.6111 8.96818 18.1717 8.96818H13.3062L13.6208 1.53216Z" fill="black"/>
<mask id="mask0_2001_18890" style="mask-type:alpha" maskUnits="userSpaceOnUse" x="5" y="0" width="14" height="23">
<path fill-rule="evenodd" clip-rule="evenodd" d="M13.6208 1.53216C13.6452 0.954957 12.8771 0.735256 12.5926 1.23808L5.71439 13.3956C5.50696 13.7623 5.77183 14.2165 6.19309 14.2165H10.9062L9.22686 21.999C9.09883 22.5923 9.88501 22.9252 10.222 22.4203L18.6292 9.8235C18.8731 9.45801 18.6111 8.96818 18.1717 8.96818H13.3062L13.6208 1.53216Z" fill="white"/>
</mask>
<g mask="url(#mask0_2001_18890)">
<path fill-rule="evenodd" clip-rule="evenodd" d="M13.9317 1.12458L8.46203 12.45H13.5L9.87657 23.3484V25.5H4.42505V-0.75H13.9317V1.12458Z" fill="#FFC800"/>
</g>
<rect x="15" y="9.75" width="2.25" height="0.75" rx="0.375" fill="white"/>
</svg>
