<?xml version="1.0" encoding="UTF-8"?>
<svg width="76px" height="76px" viewBox="0 0 76 76" version="1.1" xmlns="http://www.w3.org/2000/svg" xmlns:xlink="http://www.w3.org/1999/xlink">
    <title>Group</title>
    <defs>
        <filter x="-17.5%" y="-17.5%" width="135.0%" height="135.0%" filterUnits="objectBoundingBox" id="filter-1">
            <feOffset dx="0" dy="2" in="SourceAlpha" result="shadowOffsetOuter1"></feOffset>
            <feGaussianBlur stdDeviation="1.5" in="shadowOffsetOuter1" result="shadowBlurOuter1"></feGaussianBlur>
            <feColorMatrix values="0 0 0 0 0   0 0 0 0 0   0 0 0 0 0  0 0 0 0.2 0" type="matrix" in="shadowBlurOuter1" result="shadowMatrixOuter1"></feColorMatrix>
            <feMerge>
                <feMergeNode in="shadowMatrixOuter1"></feMergeNode>
                <feMergeNode in="SourceGraphic"></feMergeNode>
            </feMerge>
        </filter>
    </defs>
    <g id="Page-1" stroke="none" stroke-width="1" fill="none" fill-rule="evenodd">
        <g id="Group" filter="url(#filter-1)" transform="translate(8.000000, 8.000000)">
            <circle id="Oval" fill="#FFFFFF" fill-rule="nonzero" cx="30" cy="30" r="30"></circle>
            <path d="M43.75,16 L16.25,16 L16.25,46 L43.75,46 L43.75,16 Z M18.125,44.125 L18.125,17.875 L41.875,17.875 L41.875,44.125 L18.125,44.125 Z" id="Shape" fill="#000000"></path>
            <polygon id="Path" fill="#FFFFFF" fill-rule="nonzero" points="18.125 17.875 18.125 44.125 41.875 44.125 41.875 17.875"></polygon>
            <rect id="Rectangle" fill="#FFC800" fill-rule="nonzero" x="22.5" y="32.25" width="15" height="12.5"></rect>
            <path d="M38.75,31 L21.25,31 L21.25,46 L38.75,46 L38.75,31 Z M23.125,44.125 L23.125,32.875 L36.875,32.875 L36.875,44.125 L23.125,44.125 Z" id="Shape" fill="#000000"></path>
            <polygon id="Path" fill="#000000" fill-rule="nonzero" points="29.062 32.25 29.062 44.19 30.938 44.19 30.938 32.25"></polygon>
            <path d="M28.525,24.25 L31.263,19.75 L27.883,19.75 L25.479,23.463 L25.479,19.75 L22.219,19.75 L22.219,28.75 L25.479,28.75 L25.479,25.037 L27.883,28.75 L31.263,28.75 L28.525,24.25 Z M37.594,19.75 L32.576,19.75 L29.755,24.25 L32.576,28.75 L37.594,28.75 L37.594,19.75 Z" id="Shape" fill="#000000"></path>
            <path d="M33.094,22.375 C33.094,21.547 33.765,20.875 34.594,20.875 C35.422,20.875 36.094,21.547 36.094,22.375 C36.094,23.203 35.422,23.875 34.594,23.875 C33.765,23.875 33.094,23.203 33.094,22.375 Z" id="Path" fill="#FFC800" fill-rule="nonzero"></path>
            <polygon id="Path" fill="#FFFFFF" fill-rule="nonzero" points="33.094 27.25 36.094 27.25 36.094 24.625 33.094 24.625"></polygon>
        </g>
    </g>
</svg>