<svg width="24" height="24" viewBox="0 0 24 24" fill="none" xmlns="http://www.w3.org/2000/svg">
<path d="M2.55396 8.65327V6.12313L13.147 3.47486L17.958 7.49085L19.3999 5.76355L13.7109 1.01465L0.303955 4.36638V10.0862L15.2032 16.2889L16.1547 14.2499L2.55396 8.65327Z" fill="black"/>
<circle cx="13.5" cy="2.25" r="1.5" fill="black"/>
<circle cx="13.5" cy="2.25" r="0.75" fill="#FFC800"/>
<circle cx="1.5" cy="5.25" r="1.5" fill="black"/>
<circle cx="1.5" cy="5.25" r="0.75" fill="#FFC800"/>
<circle cx="1.5" cy="9.75" r="1.5" fill="black"/>
<circle cx="1.5" cy="9.75" r="0.75" fill="#FFC800"/>
<path fill-rule="evenodd" clip-rule="evenodd" d="M18 0H23.25V7.5H18L18 0Z" fill="black"/>
<path fill-rule="evenodd" clip-rule="evenodd" d="M18.75 0.75H22.5V3H18.75L18.75 0.75Z" fill="white"/>
<path fill-rule="evenodd" clip-rule="evenodd" d="M18.75 3.75H22.5V6H18.75L18.75 3.75Z" fill="white"/>
<path fill-rule="evenodd" clip-rule="evenodd" d="M16.5 15V18.75H4.5V15H16.5Z" fill="#FFC800"/>
<rect x="4.5" y="14.25" width="12" height="0.75" fill="black"/>
<path fill-rule="evenodd" clip-rule="evenodd" d="M1.5 19.5H18.75V21H1.5V19.5Z" fill="black"/>
<path fill-rule="evenodd" clip-rule="evenodd" d="M9.75 18.75H11.25V21H9.75V18.75Z" fill="black"/>
<path d="M4.125 24C5.98896 24 7.5 22.489 7.5 20.625C7.5 18.761 5.98896 17.25 4.125 17.25C2.26104 17.25 0.75 18.761 0.75 20.625C0.75 22.489 2.26104 24 4.125 24Z" fill="black"/>
<path d="M4.125 21.75C3.50368 21.75 3 21.2463 3 20.625C3 20.0037 3.50368 19.5 4.125 19.5C4.74632 19.5 5.25 20.0037 5.25 20.625C5.25 21.2463 4.74632 21.75 4.125 21.75Z" fill="white"/>
<path d="M16.875 24C18.739 24 20.25 22.489 20.25 20.625C20.25 18.761 18.739 17.25 16.875 17.25C15.011 17.25 13.5 18.761 13.5 20.625C13.5 22.489 15.011 24 16.875 24Z" fill="black"/>
<path d="M16.875 21.75C16.2537 21.75 15.75 21.2463 15.75 20.625C15.75 20.0037 16.2537 19.5 16.875 19.5C17.4963 19.5 18 20.0037 18 20.625C18 21.2463 17.4963 21.75 16.875 21.75Z" fill="white"/>
</svg>
