<svg width="24" height="24" viewBox="0 0 24 24" fill="none" xmlns="http://www.w3.org/2000/svg">
<rect x="2.25" y="8.25" width="10.5" height="12.75" rx="0.5" fill="black"/>
<path d="M7.875 7.5V4.5C7.875 3.46447 8.71447 2.625 9.75 2.625H19.5V1.875H9.75C8.30025 1.875 7.125 3.05025 7.125 4.5V7.5H7.875Z" fill="black"/>
<path d="M1.5 8C1.5 7.72386 1.72386 7.5 2 7.5H13C13.2761 7.5 13.5 7.72386 13.5 8V9H1.5V8Z" fill="#FFC800"/>
<path d="M6 6.5C6 6.22386 6.22386 6 6.5 6H8.5C8.77614 6 9 6.22386 9 6.5V7.5H6V6.5Z" fill="black"/>
<rect x="1.5" y="20.25" width="12" height="1.5" fill="#FFC800"/>
<rect x="3" y="9.75" width="3.75" height="0.75" fill="white"/>
<rect y="19.5" width="1.5" height="4.5" rx="0.5" fill="black"/>
<rect x="13.5" y="19.5" width="1.5" height="4.5" rx="0.5" fill="black"/>
<rect x="21" y="20.25" width="1.5" height="17.25" transform="rotate(-180 21 20.25)" fill="black"/>
<rect x="5.25" y="12.75" width="4.5" height="4.5" rx="0.5" fill="#FFC800"/>
<circle cx="7.5" cy="15" r="1.5" transform="rotate(-180 7.5 15)" fill="black"/>
<path d="M21 6H19.5V1.25C19.5 0.973857 19.7239 0.75 20 0.75H20.5C20.7761 0.75 21 0.973858 21 1.25V6Z" fill="#FFC800"/>
<path d="M16.5 21.5C16.5 21.2239 16.7239 21 17 21H23.5C23.7761 21 24 21.2239 24 21.5V23.25H16.5V21.5Z" fill="black"/>
<path d="M16.5 20.75C16.5 20.4739 16.7239 20.25 17 20.25H23.5C23.7761 20.25 24 20.4739 24 20.75V22.5H16.5V20.75Z" fill="#FFC800"/>
</svg>
