<svg width="24" height="24" viewBox="0 0 24 24" fill="none" xmlns="http://www.w3.org/2000/svg">
<rect x="1.5" y="7.5" width="12" height="6.75" fill="black"/>
<path d="M1.5 14.25H13.5V21.25C13.5 21.5261 13.2761 21.75 13 21.75H2C1.72386 21.75 1.5 21.5261 1.5 21.25V14.25Z" fill="#FFC800"/>
<rect width="13.5" height="1.5" rx="0.5" transform="matrix(1 0 0 -1 0.75 7.5)" fill="#FFC800"/>
<circle cx="7.5" cy="10.5" r="1.5" fill="white"/>
<circle cx="4.875" cy="17.625" r="1.125" fill="black"/>
<circle cx="10.125" cy="17.625" r="1.125" fill="black"/>
<path d="M10.6981 21.4662V17.625H9.57312V22.0912C9.57312 22.3673 9.79698 22.5912 10.0731 22.5912H15.8439V21.4662H10.6981Z" fill="black"/>
<circle cx="3.75" cy="9.75" r="0.75" fill="white"/>
<circle cx="11.25" cy="9.75" r="0.75" fill="white"/>
<path fill-rule="evenodd" clip-rule="evenodd" d="M15 22.5912L16.5515 12.5712L16.7754 3.819C16.7823 3.54793 17.0041 3.33179 17.2752 3.33179H18.6146C18.8907 3.33179 19.1146 3.55564 19.1146 3.83179V4.53687C19.1146 4.81301 18.8907 5.03687 18.6146 5.03687H18.2433C17.9671 5.03687 17.7433 5.26072 17.7433 5.53687V9.80012C17.7433 10.222 18.0853 10.5641 18.5073 10.5641C18.914 10.5641 19.2495 10.2453 19.2702 9.83907L19.5781 3.8063C19.5917 3.54041 19.8113 3.33179 20.0775 3.33179H20.1656C20.4418 3.33179 20.6656 3.55564 20.6656 3.83179V4.81778C20.6656 4.93878 20.5676 5.03687 20.4466 5.03687C20.3216 5.03687 20.222 5.14116 20.2277 5.26596L20.4699 10.5641L22.2718 22.0135C22.3195 22.3169 22.085 22.5912 21.7778 22.5912H21.0866C20.8433 22.5912 20.6354 22.4161 20.5939 22.1764L19.3302 14.8744C19.2741 14.5506 18.9932 14.3141 18.6646 14.3141C18.3319 14.3141 18.0488 14.5563 17.9972 14.8849L16.8541 22.1687C16.816 22.4119 16.6064 22.5912 16.3602 22.5912H15Z" fill="black"/>
<circle cx="18.636" cy="12.4359" r="0.75" fill="white"/>
</svg>
