<svg width="24" height="24" viewBox="0 0 24 24" fill="none" xmlns="http://www.w3.org/2000/svg">
<path fill-rule="evenodd" clip-rule="evenodd" d="M12.5035 16.6905L16.4233 15.4516L12.5035 14.1333L8.58362 15.4516L12.5035 16.6905ZM12.5035 18.1391L18.6387 20.1995L19.1798 18.8005L14.7256 17.3928L19.6642 15.7342C20.1187 15.5816 20.1186 14.9386 19.6639 14.7862L15.1061 13.258L19.7099 11.7097C20.1596 11.5584 20.1655 10.9245 19.7187 10.7649L14.5358 8.91337L19.0547 7.43534L18.4453 6.0647L12.5035 8.18735L6.56163 6.0647L5.95226 7.43534L10.4711 8.91337L5.28821 10.7649C4.84142 10.9245 4.84734 11.5584 5.29704 11.7097L9.90088 13.258L5.34301 14.7862C4.88839 14.9386 4.88823 15.5816 5.34278 15.7342L10.2813 17.3928L5.82712 18.8005L6.36829 20.1995L12.5035 18.1391ZM12.5035 12.3854L16.7418 10.9644L12.5035 9.5781L8.26514 10.9644L12.5035 12.3854Z" fill="black"/>
<path fill-rule="evenodd" clip-rule="evenodd" d="M2.25 22.5L2.25 20.25H21.75V22.5L20.3556 23.1972C20.2861 23.2319 20.2096 23.25 20.132 23.25H4.58114C4.5274 23.25 4.47401 23.2413 4.42302 23.2243L2.25 22.5Z" fill="#FFC800"/>
<path d="M2.25 19.25C2.25 18.9739 2.47386 18.75 2.75 18.75H21.25C21.5261 18.75 21.75 18.9739 21.75 19.25V20.25H2.25V19.25Z" fill="black"/>
<path d="M2.25 7C2.25 7.27614 2.47386 7.5 2.75 7.5H21.25C21.5261 7.5 21.75 7.27614 21.75 7V6.75H2.25V7Z" fill="black"/>
<path d="M2.25 6.75H21.75V0.5C21.75 0.223858 21.5261 0 21.25 0H2.75C2.47386 0 2.25 0.223857 2.25 0.5V6.75Z" fill="black"/>
<rect x="3" y="0.75" width="9" height="2.25" fill="white"/>
<rect x="12.75" y="0.75" width="8.25" height="2.25" fill="white"/>
<rect x="3" y="3.75" width="9" height="2.25" fill="white"/>
<rect x="12.75" y="3.75" width="8.25" height="2.25" fill="white"/>
<path d="M3.75 24C4.57843 24 5.25 23.3284 5.25 22.5C5.25 21.6716 4.57843 21 3.75 21C2.92157 21 2.25 21.6716 2.25 22.5C2.25 23.3284 2.92157 24 3.75 24Z" fill="black"/>
<path d="M20.25 24C21.0784 24 21.75 23.3284 21.75 22.5C21.75 21.6716 21.0784 21 20.25 21C19.4216 21 18.75 21.6716 18.75 22.5C18.75 23.3284 19.4216 24 20.25 24Z" fill="black"/>
</svg>
